<svg xmlns="http://www.w3.org/2000/svg"  viewBox="0 0 100 100" width="200px" height="200px"><path fill="#c7ede6" d="M87.215,56.71C88.35,54.555,89,52.105,89,49.5c0-6.621-4.159-12.257-10.001-14.478	C78.999,35.015,79,35.008,79,35c0-11.598-9.402-21-21-21c-9.784,0-17.981,6.701-20.313,15.757C36.211,29.272,34.638,29,33,29	c-7.692,0-14.023,5.793-14.89,13.252C12.906,43.353,9,47.969,9,53.5C9,59.851,14.149,65,20.5,65c0.177,0,0.352-0.012,0.526-0.022	C21.022,65.153,21,65.324,21,65.5C21,76.822,30.178,86,41.5,86c6.437,0,12.175-2.972,15.934-7.614C59.612,80.611,62.64,82,66,82	c4.65,0,8.674-2.65,10.666-6.518C77.718,75.817,78.837,76,80,76c6.075,0,11-4.925,11-11C91,61.689,89.53,58.727,87.215,56.71z"/><path fill="#fdfcef" d="M64.5,53.5V54h-3v-0.5c0,0-4.242,0-5.5,0c-2.485,0-4.5-2.015-4.5-4.5 c0-2.333,1.782-4.229,4.055-4.455C55.533,44.364,55.5,44.187,55.5,44c0-2.485,2.015-4.5,4.5-4.5c1.438,0,2.703,0.686,3.527,1.736 C63.667,38.6,65.829,36.5,68.5,36.5c2.761,0,5,2.239,5,5c0,0.446-0.077,0.87-0.187,1.282C73.955,42.005,74.914,41.5,76,41.5 c1.781,0,3.234,1.335,3.455,3.055C79.636,44.533,79.813,44.5,80,44.5c2.485,0,4.5,2.015,4.5,4.5s-2.015,4.5-4.5,4.5s-9.5,0-9.5,0 H64.5z"/><path fill="#472b29" d="M68.5,36c3.033,0,5.5,2.467,5.5,5.5c0,0.016,0,0.031,0,0.047C74.602,41.192,75.29,41,76,41 c1.831,0,3.411,1.261,3.858,3.005C79.905,44.002,79.952,44,80,44c2.757,0,5,2.243,5,5s-2.243,5-5,5H64.5 c-0.276,0-0.5-0.224-0.5-0.5s0.224-0.5,0.5-0.5H80c2.206,0,4-1.794,4-4s-1.794-4-4-4c-0.117,0-0.23,0.017-0.343,0.032l-0.141,0.019 c-0.021,0.003-0.041,0.004-0.062,0.004c-0.246,0-0.462-0.185-0.495-0.437C78.768,43.125,77.496,42,76,42 c-0.885,0-1.723,0.401-2.301,1.1c-0.098,0.118-0.241,0.182-0.386,0.182c-0.078,0-0.156-0.018-0.228-0.056 c-0.209-0.107-0.314-0.346-0.254-0.573C72.946,42.218,73,41.852,73,41.5c0-2.481-2.019-4.5-4.5-4.5 c-2.381,0-4.347,1.872-4.474,4.263c-0.011,0.208-0.15,0.387-0.349,0.45c-0.05,0.016-0.101,0.024-0.152,0.024 c-0.15,0-0.296-0.069-0.392-0.192C62.362,40.563,61.221,40,60,40c-2.206,0-4,1.794-4,4c0,0.117,0.017,0.23,0.032,0.343l0.019,0.141 c0.016,0.134-0.022,0.268-0.106,0.373s-0.207,0.172-0.34,0.185C53.549,45.247,52,46.949,52,49c0,2.206,1.794,4,4,4h5.5 c0.276,0,0.5,0.224,0.5,0.5S61.776,54,61.5,54H56c-2.757,0-5-2.243-5-5c0-2.397,1.689-4.413,4.003-4.877 C55.001,44.082,55,44.041,55,44c0-2.757,2.243-5,5-5c1.176,0,2.293,0.416,3.183,1.164C63.781,37.76,65.945,36,68.5,36L68.5,36z"/><path fill="#472b29" d="M70,43c1.403,0,2.609,0.999,2.913,2.341C73.28,45.119,73.699,45,74.125,45 c1.202,0,2.198,0.897,2.353,2.068C76.681,47.022,76.874,47,77.063,47c1.529,0,2.811,1.2,2.918,2.732 C79.99,49.87,79.886,49.99,79.749,50c-0.006,0-0.012,0-0.018,0c-0.13,0-0.24-0.101-0.249-0.232 c-0.089-1.271-1.151-2.268-2.419-2.268c-0.229,0-0.47,0.041-0.738,0.127c-0.022,0.007-0.045,0.01-0.067,0.01 c-0.055,0-0.11-0.02-0.156-0.054C76.038,47.537,76,47.455,76,47.375c0-1.034-0.841-1.875-1.875-1.875 c-0.447,0-0.885,0.168-1.231,0.473c-0.047,0.041-0.106,0.063-0.165,0.063c-0.032,0-0.063-0.006-0.093-0.019 c-0.088-0.035-0.148-0.117-0.155-0.212C72.377,44.512,71.288,43.5,70,43.5c-0.208,0-0.425,0.034-0.682,0.107 c-0.023,0.007-0.047,0.01-0.07,0.01c-0.109,0-0.207-0.073-0.239-0.182c-0.038-0.133,0.039-0.271,0.172-0.309 C69.483,43.04,69.744,43,70,43L70,43z"/><path fill="#472b29" d="M56.117,44.5c1.326,0,2.508,0.897,2.874,2.182c0.038,0.133-0.039,0.271-0.172,0.309 C58.795,46.997,58.772,47,58.75,47c-0.109,0-0.209-0.072-0.24-0.182C58.205,45.748,57.221,45,56.117,45 c-0.117,0-0.23,0.014-0.342,0.029c-0.012,0.002-0.023,0.003-0.035,0.003c-0.121,0-0.229-0.092-0.246-0.217 c-0.019-0.137,0.077-0.263,0.214-0.281C55.842,44.516,55.978,44.5,56.117,44.5L56.117,44.5z"/><path fill="#fff" d="M20.5,42h-10c-0.276,0-0.5-0.224-0.5-0.5s0.224-0.5,0.5-0.5h10c0.276,0,0.5,0.224,0.5,0.5	S20.777,42,20.5,42z"/><path fill="#fff" d="M23.5,42h-1c-0.276,0-0.5-0.224-0.5-0.5s0.224-0.5,0.5-0.5h1c0.276,0,0.5,0.224,0.5,0.5	S23.777,42,23.5,42z"/><path fill="#fff" d="M28.491,44H19.5c-0.276,0-0.5-0.224-0.5-0.5s0.224-0.5,0.5-0.5h8.991c0.276,0,0.5,0.224,0.5,0.5	S28.767,44,28.491,44z"/><path fill="#fff" d="M17.5,44h-1c-0.276,0-0.5-0.224-0.5-0.5s0.224-0.5,0.5-0.5h1c0.276,0,0.5,0.224,0.5,0.5	S17.777,44,17.5,44z"/><path fill="#fff" d="M14.5,44h-2c-0.276,0-0.5-0.224-0.5-0.5s0.224-0.5,0.5-0.5h2c0.276,0,0.5,0.224,0.5,0.5	S14.777,44,14.5,44z"/><path fill="#fff" d="M20.5,46h-2c-0.276,0-0.5-0.224-0.5-0.5s0.224-0.5,0.5-0.5h2c0.276,0,0.5,0.224,0.5,0.5	S20.776,46,20.5,46z"/><path fill="#fff" d="M23.5,37c-0.177,0-0.823,0-1,0c-0.276,0-0.5,0.224-0.5,0.5s0.224,0.5,0.5,0.5c0.177,0,0.823,0,1,0	c0.276,0,0.5-0.224,0.5-0.5S23.776,37,23.5,37z"/><path fill="#fff" d="M23.5,39c-0.177,0-4.823,0-5,0c-0.276,0-0.5,0.224-0.5,0.5s0.224,0.5,0.5,0.5c0.177,0,4.823,0,5,0	c0.276,0,0.5-0.224,0.5-0.5S23.776,39,23.5,39z"/><path fill="#fff" d="M28.5,41c-0.177,0-2.823,0-3,0c-0.276,0-0.5,0.224-0.5,0.5s0.224,0.5,0.5,0.5c0.177,0,2.823,0,3,0	c0.276,0,0.5-0.224,0.5-0.5S28.776,41,28.5,41z"/><path fill="#fff" d="M86.5,63h-10c-0.276,0-0.5-0.224-0.5-0.5s0.224-0.5,0.5-0.5h10c0.276,0,0.5,0.224,0.5,0.5 S86.776,63,86.5,63z"/><path fill="#fff" d="M90.5,63h-2c-0.276,0-0.5-0.224-0.5-0.5s0.224-0.5,0.5-0.5h2c0.276,0,0.5,0.224,0.5,0.5 S90.776,63,90.5,63z"/><path fill="#fff" d="M95.5,65h-10c-0.276,0-0.5-0.224-0.5-0.5s0.224-0.5,0.5-0.5h10c0.276,0,0.5,0.224,0.5,0.5 S95.777,65,95.5,65z"/><path fill="#fff" d="M83.5,65h-1c-0.276,0-0.5-0.224-0.5-0.5s0.224-0.5,0.5-0.5h1c0.276,0,0.5,0.224,0.5,0.5 S83.776,65,83.5,65z"/><path fill="#fff" d="M80.47,65H78.5c-0.276,0-0.5-0.224-0.5-0.5s0.224-0.5,0.5-0.5h1.97c0.276,0,0.5,0.224,0.5,0.5 S80.746,65,80.47,65z"/><path fill="#fff" d="M89.5,61h-5c-0.276,0-0.5-0.224-0.5-0.5s0.224-0.5,0.5-0.5h5c0.276,0,0.5,0.224,0.5,0.5 S89.777,61,89.5,61z"/><path fill="#fff" d="M86.5,67h-2c-0.276,0-0.5-0.224-0.5-0.5s0.224-0.5,0.5-0.5h2c0.276,0,0.5,0.224,0.5,0.5 S86.776,67,86.5,67z"/><g><path fill="#fdfcef" d="M27.5,68.5c0,0-1.567,0-3.5,0s-3.5-1.567-3.5-3.5c0-1.781,1.335-3.234,3.055-3.455 C23.527,61.366,23.5,61.187,23.5,61c0-1.933,1.567-3.5,3.5-3.5c1.032,0,1.95,0.455,2.59,1.165c0.384-1.808,1.987-3.165,3.91-3.165 c2.209,0,4,1.791,4,4c0,0.191-0.03,0.374-0.056,0.558C37.872,59.714,38.408,59.5,39,59.5c1.228,0,2.245,0.887,2.455,2.055 C41.634,61.527,41.813,61.5,42,61.5c1.933,0,3.5,1.567,3.5,3.5s-1.567,3.5-3.5,3.5s-7.5,0-7.5,0V69h-7V68.5z"/><path fill="#472b29" d="M25.75,64c0.138,0,0.25-0.112,0.25-0.25c0-1.223-0.995-2.218-2.218-2.218 c-0.034,0.009-0.737-0.001-1.244,0.136c-0.133,0.036-0.212,0.173-0.176,0.306c0.036,0.134,0.173,0.213,0.306,0.176 c0.444-0.12,1.1-0.12,1.113-0.118c0.948,0,1.719,0.771,1.719,1.718C25.5,63.888,25.612,64,25.75,64z"/><circle cx="32.5" cy="68.5" r=".5" fill="#472b29"/><path fill="#472b29" d="M24,69h3.5c0.276,0,0.5-0.224,0.5-0.5S27.776,68,27.5,68H24c-1.654,0-3-1.346-3-3 c0-1.496,1.125-2.768,2.618-2.959c0.134-0.018,0.255-0.088,0.336-0.196s0.115-0.244,0.094-0.377C24.025,61.314,24,61.16,24,61 c0-1.654,1.346-3,3-3c0.85,0,1.638,0.355,2.219,1c0.125,0.139,0.321,0.198,0.5,0.148c0.182-0.049,0.321-0.195,0.36-0.379 C30.42,57.165,31.859,56,33.5,56c1.93,0,3.5,1.57,3.5,3.5c0,0.143-0.021,0.28-0.041,0.418c-0.029,0.203,0.063,0.438,0.242,0.54 c0.179,0.102,0.396,0.118,0.556-0.01C38.122,60.155,38.551,60,39,60c0.966,0,1.792,0.691,1.963,1.644 c0.048,0.267,0.296,0.446,0.569,0.405C41.686,62.025,41.84,62,42,62c1.654,0,3,1.346,3,3s-1.346,3-3,3h-7.5 c-0.276,0-0.5,0.224-0.5,0.5s0.224,0.5,0.5,0.5H42c2.206,0,4-1.794,4-4s-1.794-4-4-4c-0.059,0-0.116,0.002-0.174,0.006 C41.412,59.82,40.289,59,39,59c-0.349,0-0.689,0.061-1.011,0.18C37.824,56.847,35.874,55,33.5,55c-1.831,0-3.466,1.127-4.153,2.774 C28.667,57.276,27.845,57,27,57c-2.206,0-4,1.794-4,4c0,0.048,0.001,0.095,0.004,0.142C21.261,61.59,20,63.169,20,65 C20,67.206,21.794,69,24,69z"/><path fill="#472b29" d="M29.5,68c0.159,0,0.841,0,1,0c0.276,0,0.5,0.224,0.5,0.5S30.776,69,30.5,69c-0.159,0-0.841,0-1,0 c-0.276,0-0.5-0.224-0.5-0.5S29.224,68,29.5,68z"/></g><g><path fill="#fcc938" d="M35.5,67.571c0-0.829,0.305-1.659,0.917-2.489c0.61-0.829,1.31-1.244,2.096-1.244 c0.48,0,1.059,0.281,1.736,0.84c0.677,0.56,1.343,1.164,1.997,1.813c0.655,0.648,1.648,1.254,2.981,1.813 c1.331,0.56,2.827,0.84,4.486,0.84c2.489,0,4.487-0.593,5.993-1.778c1.506-1.185,2.259-2.92,2.259-5.204 c0-2.106-0.732-3.863-2.194-5.267c-1.464-1.404-3.233-2.523-5.306-3.358c-2.074-0.835-4.159-1.734-6.255-2.7 c-2.096-0.966-3.875-2.414-5.338-4.346c-1.463-1.932-2.194-4.346-2.194-7.244c0-2.308,0.447-4.313,1.342-6.011 c0.895-1.699,2.106-3.006,3.636-3.921c1.528-0.914,3.133-1.579,4.814-1.993c1.68-0.413,3.459-0.621,5.338-0.621 c1.178,0,2.412,0.076,3.701,0.228c1.287,0.151,2.565,0.399,3.831,0.745c1.267,0.346,2.314,0.843,3.144,1.49 c0.829,0.648,1.244,1.381,1.244,2.203c0,0.821-0.262,1.647-0.786,2.482c-0.524,0.834-1.223,1.25-2.096,1.25 c-0.438,0-1.027-0.207-1.769-0.625c-0.743-0.418-1.736-0.834-2.981-1.252c-1.244-0.416-2.674-0.625-4.289-0.625 c-2.489,0-4.477,0.494-5.961,1.481c-1.484,0.989-2.227,2.492-2.227,4.511c0,1.318,0.393,2.449,1.179,3.392 c0.786,0.944,1.801,1.724,3.046,2.338c1.244,0.615,2.629,1.219,4.159,1.811c1.528,0.593,3.045,1.283,4.552,2.074 c1.506,0.79,2.881,1.701,4.126,2.733c1.244,1.031,2.259,2.448,3.045,4.247c0.786,1.8,1.179,3.886,1.179,6.256 c0,4.512-1.366,7.951-4.094,10.315c-2.729,2.363-6.343,3.546-10.84,3.546c-4.018,0-7.434-0.84-10.25-2.521 C36.908,71.098,35.5,69.362,35.5,67.571z"/><path fill="#472b29" d="M49.975,76c-4.127,0-7.696-0.882-10.608-2.62c-3.03-1.808-4.566-3.762-4.566-5.809 c0-0.979,0.354-1.957,1.054-2.904c0.747-1.014,1.642-1.529,2.659-1.529c0.653,0,1.366,0.327,2.182,1 c0.695,0.575,1.384,1.199,2.045,1.855c0.59,0.584,1.518,1.144,2.758,1.665c1.238,0.521,2.656,0.785,4.216,0.785 c2.316,0,4.188-0.547,5.561-1.627c1.341-1.055,1.992-2.578,1.992-4.654c0-1.925-0.646-3.483-1.979-4.762 c-1.391-1.334-3.101-2.416-5.082-3.214c-2.1-0.846-4.215-1.759-6.287-2.714c-2.192-1.011-4.078-2.545-5.603-4.56 c-1.55-2.046-2.336-4.625-2.336-7.667c0-2.413,0.479-4.545,1.423-6.337c0.95-1.806,2.261-3.217,3.896-4.196 c1.58-0.946,3.265-1.643,5.007-2.072c2.817-0.692,5.901-0.808,9.287-0.409c1.313,0.154,2.638,0.411,3.934,0.765 c1.351,0.369,2.49,0.912,3.391,1.614c1.004,0.784,1.514,1.711,1.514,2.754c0,0.949-0.301,1.91-0.893,2.854 c-0.649,1.033-1.579,1.579-2.688,1.579c-0.567,0-1.259-0.234-2.113-0.715c-0.695-0.392-1.657-0.794-2.859-1.198 c-1.168-0.391-2.536-0.588-4.066-0.588c-2.336,0-4.212,0.459-5.573,1.364c-1.289,0.858-1.915,2.144-1.915,3.928 c0,1.16,0.333,2.122,1.018,2.943c0.721,0.865,1.668,1.591,2.817,2.158c1.217,0.602,2.597,1.203,4.103,1.786 c1.554,0.603,3.109,1.312,4.624,2.107c1.539,0.806,2.969,1.753,4.248,2.813c1.324,1.097,2.414,2.613,3.24,4.506 c0.821,1.881,1.238,4.081,1.238,6.537c0,4.702-1.459,8.351-4.337,10.844C58.426,74.75,54.624,76,49.975,76z M38.513,64.538 c-0.556,0-1.057,0.313-1.532,0.959c-0.518,0.703-0.78,1.4-0.78,2.074c0,1.519,1.307,3.069,3.883,4.607 c2.692,1.607,6.021,2.422,9.892,2.422c4.304,0,7.796-1.135,10.382-3.375c2.557-2.215,3.853-5.508,3.853-9.786 c0-2.262-0.377-4.273-1.121-5.977c-0.737-1.69-1.696-3.032-2.85-3.988c-1.205-0.999-2.553-1.891-4.006-2.652 c-1.469-0.771-2.976-1.458-4.479-2.042c-1.545-0.599-2.963-1.216-4.217-1.836c-1.325-0.654-2.427-1.501-3.273-2.518 c-0.89-1.067-1.342-2.359-1.342-3.839c0-2.257,0.854-3.971,2.539-5.094c1.597-1.061,3.732-1.599,6.35-1.599 c1.682,0,3.199,0.223,4.511,0.661c1.305,0.438,2.319,0.865,3.103,1.306c0.826,0.465,1.248,0.535,1.426,0.535 c0.63,0,1.107-0.293,1.503-0.922c0.456-0.727,0.678-1.417,0.678-2.109c0-0.599-0.318-1.139-0.975-1.651 c-0.753-0.587-1.728-1.047-2.897-1.367c-1.229-0.335-2.483-0.579-3.729-0.725c-3.223-0.381-6.138-0.274-8.79,0.377 c-1.605,0.396-3.161,1.04-4.622,1.914c-1.41,0.845-2.547,2.072-3.376,3.647c-0.837,1.589-1.261,3.501-1.261,5.685 c0,2.729,0.69,5.024,2.051,6.821c1.385,1.829,3.092,3.22,5.073,4.133c2.051,0.946,4.146,1.85,6.225,2.687 c2.148,0.866,4.008,2.044,5.528,3.502c1.599,1.536,2.409,3.478,2.409,5.772c0,2.498-0.851,4.434-2.527,5.754 c-1.626,1.279-3.788,1.928-6.426,1.928c-1.747,0-3.349-0.301-4.758-0.895c-1.405-0.59-2.483-1.25-3.201-1.96 c-0.632-0.627-1.289-1.223-1.952-1.771C39.087,64.626,38.688,64.538,38.513,64.538z"/></g><g><path fill="#472b29" d="M60.146,31.493c-0.035,0-0.07-0.007-0.104-0.022c-0.044-0.02-4.384-1.974-8.355-1.75 c-1.285,0.073-2.527,0.251-3.692,0.528c-0.138,0.035-0.269-0.051-0.301-0.185c-0.032-0.134,0.051-0.27,0.186-0.301 c1.193-0.284,2.465-0.466,3.779-0.541c4.105-0.232,8.409,1.711,8.591,1.794c0.126,0.058,0.182,0.206,0.124,0.331 C60.332,31.439,60.241,31.493,60.146,31.493z"/><path fill="#472b29" d="M55.251,71.442c-0.099,0-0.191-0.059-0.231-0.155c-0.053-0.128,0.009-0.274,0.137-0.327 c0.726-0.298,1.414-0.659,2.046-1.072c2.585-1.692,4.068-4.667,4.068-8.162c0-2.997-1.1-5.817-2.941-7.545 c-0.898-0.841-1.935-1.605-3.166-2.334c-0.119-0.07-0.158-0.224-0.088-0.343c0.069-0.12,0.224-0.158,0.342-0.088 c1.265,0.748,2.328,1.533,3.254,2.4c1.941,1.82,3.1,4.777,3.1,7.91c0,3.667-1.565,6.794-4.295,8.58 c-0.658,0.431-1.375,0.806-2.13,1.117C55.314,71.437,55.283,71.442,55.251,71.442z M50.875,49.703c-0.033,0-0.067-0.007-0.1-0.021 c-0.443-0.193-0.889-0.383-1.334-0.573c-1.908-0.814-3.88-1.656-5.673-2.708c-2.571-1.507-4.168-4.48-4.168-7.757 c0-0.964,0.142-1.899,0.421-2.778c0.535-1.685,1.628-3.092,3.248-4.184c0.114-0.078,0.27-0.047,0.347,0.068 c0.077,0.114,0.047,0.27-0.067,0.347c-1.524,1.027-2.551,2.346-3.051,3.92c-0.264,0.831-0.397,1.714-0.397,2.627 c0,3.101,1.502,5.908,3.92,7.326c1.767,1.035,3.724,1.871,5.617,2.679c0.446,0.19,0.893,0.381,1.337,0.574 c0.127,0.055,0.185,0.203,0.13,0.329C51.063,49.646,50.972,49.703,50.875,49.703z"/><path fill="#472b29" d="M49.734,72.499c-1.787,0-3.556-0.305-5.155-0.891c-2.319-0.85-5.625-3.319-5.765-3.424 c-0.11-0.083-0.133-0.24-0.05-0.35c0.085-0.11,0.241-0.131,0.351-0.05c0.033,0.025,3.386,2.53,5.636,3.354 c1.746,0.641,3.698,0.931,5.657,0.846c0.14-0.017,0.255,0.101,0.261,0.238c0.006,0.138-0.101,0.255-0.239,0.261 C50.198,72.494,49.966,72.499,49.734,72.499z"/></g></svg>