<svg xmlns="http://www.w3.org/2000/svg"  viewBox="0 0 100 100" width="200px" height="200px"><circle cx="13" cy="29" r="2" fill="#78a0cf"/><circle cx="77" cy="13" r="1" fill="#f1bc19"/><circle cx="50" cy="50" r="37" fill="#cee1f4"/><circle cx="83" cy="15" r="4" fill="#f1bc19"/><circle cx="87" cy="24" r="2" fill="#78a0cf"/><circle cx="81" cy="76" r="2" fill="#fbcd59"/><circle cx="15" cy="63" r="4" fill="#fbcd59"/><circle cx="25" cy="87" r="2" fill="#78a0cf"/><circle cx="18.5" cy="53.5" r="2.5" fill="#fff"/><circle cx="21" cy="67" r="1" fill="#f1bc19"/><circle cx="80" cy="34" r="1" fill="#fff"/><g><path fill="#fcc938" d="M34.439,67.189c0-0.87,0.32-1.741,0.963-2.612c0.64-0.87,1.374-1.305,2.199-1.305 c0.503,0,1.111,0.294,1.821,0.881c0.71,0.588,1.409,1.221,2.096,1.903c0.688,0.681,1.73,1.316,3.128,1.903 c1.397,0.588,2.966,0.881,4.708,0.881c2.612,0,4.708-0.622,6.289-1.866c1.58-1.244,2.371-3.064,2.371-5.461 c0-2.21-0.768-4.053-2.302-5.528c-1.536-1.473-3.392-2.648-5.568-3.524c-2.176-0.876-4.364-1.819-6.564-2.833 c-2.199-1.014-4.067-2.534-5.602-4.561c-1.535-2.027-2.302-4.561-2.302-7.602c0-2.422,0.469-4.526,1.408-6.308 c0.939-1.783,2.21-3.154,3.815-4.115c1.603-0.96,3.287-1.657,5.052-2.091c1.763-0.433,3.63-0.652,5.602-0.652 c1.236,0,2.531,0.079,3.883,0.239c1.351,0.159,2.691,0.419,4.02,0.781c1.329,0.363,2.429,0.884,3.3,1.564 c0.87,0.679,1.305,1.45,1.305,2.311c0,0.862-0.275,1.729-0.825,2.605c-0.55,0.875-1.284,1.312-2.199,1.312 c-0.459,0-1.078-0.217-1.856-0.656c-0.779-0.439-1.821-0.875-3.128-1.314c-1.305-0.437-2.807-0.656-4.501-0.656 c-2.612,0-4.698,0.519-6.255,1.555c-1.558,1.038-2.337,2.615-2.337,4.734c0,1.383,0.413,2.57,1.237,3.559 c0.825,0.99,1.89,1.809,3.197,2.453c1.305,0.646,2.759,1.279,4.364,1.901c1.603,0.622,3.196,1.347,4.777,2.176 c1.58,0.829,3.024,1.785,4.33,2.868c1.305,1.082,2.371,2.569,3.196,4.457c0.825,1.889,1.238,4.078,1.238,6.565 c0,4.735-1.433,8.343-4.296,10.825c-2.864,2.48-6.656,3.721-11.375,3.721c-4.216,0-7.801-0.881-10.757-2.646 C35.916,70.891,34.439,69.069,34.439,67.189z"/><path fill="#472b29" d="M49.629,76c-4.325,0-8.065-0.924-11.115-2.745c-3.169-1.89-4.775-3.931-4.775-6.065 c0-1.021,0.37-2.039,1.1-3.028c0.777-1.055,1.706-1.59,2.763-1.59c0.676,0,1.418,0.341,2.267,1.042 c0.735,0.609,1.456,1.264,2.144,1.945c0.621,0.615,1.599,1.206,2.905,1.754c1.306,0.549,2.798,0.827,4.438,0.827 c2.438,0,4.408-0.577,5.856-1.715c1.415-1.114,2.104-2.721,2.104-4.911c0-2.031-0.683-3.674-2.087-5.022 c-1.463-1.404-3.261-2.541-5.344-3.38c-2.188-0.881-4.407-1.839-6.596-2.847c-2.296-1.06-4.27-2.666-5.866-4.774 c-1.623-2.142-2.445-4.841-2.445-8.024c0-2.527,0.502-4.76,1.49-6.634c0.995-1.891,2.366-3.368,4.075-4.39 c1.655-0.991,3.42-1.722,5.244-2.17c2.952-0.727,6.182-0.85,9.734-0.429c1.376,0.161,2.763,0.431,4.122,0.801 c1.411,0.387,2.604,0.954,3.546,1.688c1.045,0.816,1.575,1.779,1.575,2.863c0,0.99-0.313,1.992-0.932,2.977 c-0.674,1.072-1.64,1.64-2.792,1.64c-0.59,0-1.31-0.244-2.2-0.745c-0.732-0.412-1.744-0.836-3.007-1.26 c-1.23-0.412-2.67-0.62-4.278-0.62c-2.46,0-4.435,0.483-5.868,1.438c-1.362,0.907-2.024,2.266-2.024,4.15 c0,1.226,0.352,2.243,1.075,3.111c0.759,0.911,1.758,1.677,2.969,2.273c1.29,0.638,2.739,1.269,4.308,1.875 c1.63,0.633,3.261,1.377,4.849,2.21c1.616,0.848,3.114,1.84,4.452,2.949c1.386,1.149,2.526,2.735,3.391,4.716 C65.563,55.88,66,58.183,66,60.755c0,4.924-1.526,8.744-4.538,11.354C58.48,74.69,54.499,76,49.629,76z M37.601,63.972 c-0.595,0-1.13,0.334-1.636,1.021c-0.549,0.744-0.826,1.482-0.826,2.197c0,1.607,1.377,3.243,4.092,4.863 c2.831,1.69,6.329,2.547,10.398,2.547c4.523,0,8.197-1.194,10.917-3.55c2.689-2.331,4.054-5.795,4.054-10.295 c0-2.378-0.396-4.493-1.179-6.285c-0.775-1.778-1.785-3.19-3.001-4.198c-1.263-1.048-2.68-1.985-4.209-2.787 c-1.542-0.81-3.124-1.531-4.704-2.145c-1.606-0.621-3.095-1.27-4.422-1.925c-1.387-0.685-2.539-1.57-3.425-2.633 c-0.929-1.115-1.399-2.463-1.399-4.008c0-2.356,0.892-4.145,2.648-5.315c1.669-1.11,3.904-1.673,6.645-1.673 c1.76,0,3.349,0.233,4.723,0.692c1.366,0.459,2.429,0.905,3.25,1.367c0.873,0.492,1.322,0.565,1.513,0.565 c0.674,0,1.185-0.313,1.606-0.983c0.482-0.769,0.717-1.499,0.717-2.232c0-0.64-0.339-1.215-1.036-1.76 c-0.794-0.618-1.821-1.104-3.054-1.44c-1.291-0.352-2.608-0.607-3.916-0.761c-3.386-0.399-6.449-0.287-9.237,0.397 c-1.688,0.415-3.323,1.092-4.859,2.012c-1.485,0.889-2.682,2.181-3.556,3.841c-0.882,1.672-1.328,3.684-1.328,5.981 c0,2.871,0.727,5.286,2.16,7.179c1.457,1.924,3.253,3.387,5.337,4.349c2.167,0.998,4.365,1.947,6.533,2.819 c2.249,0.906,4.197,2.141,5.79,3.669c1.671,1.604,2.518,3.634,2.518,6.032c0,2.611-0.888,4.634-2.639,6.011 c-1.7,1.338-3.962,2.016-6.722,2.016c-1.827,0-3.502-0.315-4.979-0.937c-1.472-0.618-2.599-1.308-3.349-2.051 c-0.658-0.653-1.348-1.278-2.05-1.86C38.216,64.065,37.788,63.972,37.601,63.972z"/></g><g><path fill="#472b29" d="M60.303,29.317c-0.035,0-0.07-0.007-0.104-0.022c-0.045-0.021-4.606-2.083-8.774-1.837 c-1.126,0.063-2.23,0.206-3.281,0.422c-0.132,0.022-0.267-0.06-0.295-0.194c-0.027-0.136,0.06-0.268,0.194-0.296 c1.075-0.221,2.203-0.365,3.354-0.432c4.303-0.244,8.819,1.795,9.01,1.882c0.126,0.058,0.182,0.206,0.124,0.331 C60.488,29.263,60.397,29.317,60.303,29.317z"/><path fill="#472b29" d="M42.228,44.284c-0.056,0-0.112-0.019-0.159-0.057c-0.204-0.169-0.399-0.347-0.586-0.533 c-0.098-0.098-0.098-0.256,0-0.354s0.256-0.098,0.354,0c0.175,0.175,0.358,0.343,0.551,0.5c0.106,0.088,0.122,0.245,0.034,0.353 C42.371,44.253,42.3,44.284,42.228,44.284z M40.27,41.935c-0.087,0-0.171-0.045-0.217-0.126c-0.85-1.491-1.299-3.211-1.299-4.976 c0-1.009,0.148-1.988,0.441-2.91c0.738-2.325,2.466-4.124,5.135-5.349c0.125-0.059,0.274-0.003,0.332,0.123 s0.002,0.274-0.123,0.332c-2.536,1.162-4.174,2.859-4.867,5.044c-0.277,0.874-0.418,1.802-0.418,2.76 c0,1.678,0.427,3.313,1.232,4.728c0.068,0.12,0.027,0.272-0.093,0.341C40.354,41.924,40.312,41.935,40.27,41.935z"/><path fill="#472b29" d="M51.797,72.165c-0.122,0-0.229-0.089-0.247-0.212c-0.021-0.137,0.072-0.265,0.209-0.285 c0.25-0.038,0.499-0.083,0.745-0.134c0.141-0.022,0.268,0.06,0.296,0.194c0.027,0.136-0.06,0.268-0.194,0.296 c-0.256,0.053-0.513,0.098-0.771,0.138C51.822,72.164,51.81,72.165,51.797,72.165z M54.771,71.395 c-0.101,0-0.196-0.062-0.234-0.162c-0.048-0.129,0.017-0.273,0.146-0.322c0.908-0.342,1.762-0.771,2.536-1.278 c2.717-1.777,4.275-4.902,4.275-8.574c-0.001-0.732-0.065-1.469-0.192-2.188c-0.024-0.136,0.066-0.266,0.203-0.289 c0.142-0.031,0.265,0.067,0.289,0.203c0.132,0.746,0.199,1.512,0.2,2.273c0,3.844-1.641,7.121-4.502,8.992 c-0.805,0.526-1.69,0.974-2.634,1.329C54.83,71.39,54.801,71.395,54.771,71.395z M60.3,55.457c-0.088,0-0.174-0.047-0.219-0.13 c-0.471-0.854-1.035-1.594-1.678-2.196c-2.632-2.468-6.039-3.922-9.333-5.328c-1.667-0.712-3.39-1.447-4.996-2.306 c-0.121-0.065-0.167-0.217-0.103-0.339c0.065-0.121,0.216-0.166,0.339-0.103c1.586,0.849,3.3,1.58,4.956,2.287 c3.334,1.423,6.782,2.896,9.479,5.423c0.682,0.64,1.278,1.42,1.773,2.321c0.066,0.12,0.022,0.272-0.099,0.339 C60.382,55.447,60.341,55.457,60.3,55.457z"/><path fill="#472b29" d="M49.377,72.348c-1.871,0-3.738-0.322-5.407-0.935c-2.432-0.891-5.898-3.481-6.045-3.591 c-0.11-0.083-0.133-0.24-0.05-0.351c0.085-0.111,0.241-0.131,0.351-0.05c0.035,0.026,3.554,2.656,5.916,3.522 c1.644,0.603,3.488,0.918,5.333,0.903c0.001,0,0.001,0,0.002,0c0.138,0,0.249,0.111,0.25,0.248 c0.001,0.139-0.11,0.251-0.248,0.252C49.444,72.348,49.41,72.348,49.377,72.348z"/></g></svg>